<svg xmlns="http://www.w3.org/2000/svg" viewBox="0 0 1200 600" fill="none" role="img"
  aria-label="لا توجد صورة متوفرة لهذا المنتج">
  <defs>
    <linearGradient id="bg" x1="0" y1="0" x2="1200" y2="600" gradientUnits="userSpaceOnUse">
      <stop offset="0%" stop-color="oklch(0.145 0.006 320)" />
      <stop offset="100%" stop-color="oklch(0.205 0.008 320)" />
    </linearGradient>

    <linearGradient id="card" x1="300" y1="120" x2="900" y2="480" gradientUnits="userSpaceOnUse">
      <stop offset="0%" stop-color="oklch(0.255 0.012 320)" />
      <stop offset="100%" stop-color="oklch(0.205 0.008 320)" />
    </linearGradient>

    <linearGradient id="bagPink" x1="470" y1="200" x2="620" y2="400" gradientUnits="userSpaceOnUse">
      <stop offset="0%" stop-color="oklch(0.72 0.22 355)" />
      <stop offset="100%" stop-color="oklch(0.5 0.2 350)" />
    </linearGradient>

    <linearGradient id="bagWhite" x1="600" y1="200" x2="740" y2="400" gradientUnits="userSpaceOnUse">
      <stop offset="0%" stop-color="oklch(0.97 0.02 340)" />
      <stop offset="100%" stop-color="oklch(0.86 0.05 340)" />
    </linearGradient>

    <linearGradient id="goldLine" x1="0" y1="0" x2="1200" y2="0" gradientUnits="userSpaceOnUse">
      <stop offset="0%" stop-color="oklch(0.84 0.16 92)" stop-opacity="0" />
      <stop offset="50%" stop-color="oklch(0.84 0.16 92)" stop-opacity="1" />
      <stop offset="100%" stop-color="oklch(0.84 0.16 92)" stop-opacity="0" />
    </linearGradient>

    <radialGradient id="glowPink" cx="0" cy="0" r="1" gradientUnits="userSpaceOnUse"
      gradientTransform="translate(600 400) rotate(0) scale(320 220)">
      <stop stop-color="oklch(0.62 0.24 358)" stop-opacity="0.4" />
      <stop offset="1" stop-color="oklch(0.62 0.24 358)" stop-opacity="0" />
    </radialGradient>

    <radialGradient id="glowGold" cx="0" cy="0" r="1" gradientUnits="userSpaceOnUse"
      gradientTransform="translate(600 300) rotate(0) scale(420 300)">
      <stop stop-color="oklch(0.84 0.16 92)" stop-opacity="0.16" />
      <stop offset="1" stop-color="oklch(0.84 0.16 92)" stop-opacity="0" />
    </radialGradient>

    <filter id="soft" x="380" y="120" width="440" height="380" filterUnits="userSpaceOnUse">
      <feDropShadow dx="0" dy="14" stdDeviation="26" flood-color="oklch(0.62 0.24 358 / 0.45)" />
    </filter>
  </defs>

  <rect width="1200" height="600" fill="url(#bg)" />
  <rect width="1200" height="600" fill="url(#glowGold)" />

  <rect x="300" y="120" width="600" height="360" rx="28" fill="url(#card)" />
  <rect x="300.5" y="120.5" width="599" height="359" rx="27.5" stroke="oklch(0.3 0.014 320)" />

  <rect width="1200" height="600" fill="url(#glowPink)" />

  <g filter="url(#soft)">
    <path d="M470 250h150v150a20 20 0 0 1-20 20H490a20 20 0 0 1-20-20V250Z" fill="url(#bagPink)" />
    <path d="M470 250h150v150a20 20 0 0 1-20 20H490a20 20 0 0 1-20-20V250Z"
      stroke="oklch(0.84 0.16 92)" stroke-width="3" />
    <path d="M505 250v-18a40 40 0 0 1 80 0v18" stroke="oklch(0.84 0.16 92)" stroke-width="3"
      stroke-linecap="round" />

    <path d="M600 250h150v150a20 20 0 0 1-20 20H620a20 20 0 0 1-20-20V250Z" fill="url(#bagWhite)" />
    <path d="M600 250h150v150a20 20 0 0 1-20 20H620a20 20 0 0 1-20-20V250Z"
      stroke="oklch(0.84 0.16 92)" stroke-width="3" />
    <path d="M635 250v-18a40 40 0 0 1 80 0v18" stroke="oklch(0.84 0.16 92)" stroke-width="3"
      stroke-linecap="round" />
  </g>

  <rect x="420" y="470" width="360" height="2" fill="url(#goldLine)" />
  <path d="M600 462l6 8-6 8-6-8 6-8Z" fill="oklch(0.84 0.16 92)" />
</svg>
